<mxfile host="65bd71144e">
    <diagram id="PIHt8uHPmjB86b7rJlSy" name="Page-1">
        <mxGraphModel dx="623" dy="502" grid="1" gridSize="10" guides="1" tooltips="1" connect="1" arrows="1" fold="1" page="1" pageScale="1" pageWidth="850" pageHeight="1100" math="0" shadow="0">
            <root>
                <mxCell id="0"/>
                <mxCell id="1" parent="0"/>
                <mxCell id="2" value="./server" style="rounded=1;whiteSpace=wrap;html=1;" vertex="1" parent="1">
                    <mxGeometry x="360" y="50" width="120" height="60" as="geometry"/>
                </mxCell>
                <mxCell id="4" value="./services/inMemory/NotesService" style="rounded=1;whiteSpace=wrap;html=1;" vertex="1" parent="1">
                    <mxGeometry x="440" y="240" width="200" height="60" as="geometry"/>
                </mxCell>
                <mxCell id="5" value="./api/notes" style="rounded=1;whiteSpace=wrap;html=1;" vertex="1" parent="1">
                    <mxGeometry x="240" y="240" width="120" height="60" as="geometry"/>
                </mxCell>
                <mxCell id="6" value="" style="endArrow=classic;html=1;entryX=0.5;entryY=0;entryDx=0;entryDy=0;exitX=0.5;exitY=1;exitDx=0;exitDy=0;" edge="1" parent="1" source="2" target="5">
                    <mxGeometry width="50" height="50" relative="1" as="geometry">
                        <mxPoint x="370" y="140" as="sourcePoint"/>
                        <mxPoint x="440" y="230" as="targetPoint"/>
                        <Array as="points">
                            <mxPoint x="420" y="190"/>
                            <mxPoint x="300" y="190"/>
                        </Array>
                    </mxGeometry>
                </mxCell>
                <mxCell id="8" value="" style="endArrow=classic;html=1;exitX=0.5;exitY=1;exitDx=0;exitDy=0;entryX=0.5;entryY=0;entryDx=0;entryDy=0;" edge="1" parent="1" source="2" target="4">
                    <mxGeometry width="50" height="50" relative="1" as="geometry">
                        <mxPoint x="430" y="130" as="sourcePoint"/>
                        <mxPoint x="550" y="200" as="targetPoint"/>
                        <Array as="points">
                            <mxPoint x="420" y="190"/>
                            <mxPoint x="540" y="190"/>
                        </Array>
                    </mxGeometry>
                </mxCell>
                <mxCell id="10" value="" style="endArrow=classic;html=1;exitX=0;exitY=0.5;exitDx=0;exitDy=0;entryX=0;entryY=0.5;entryDx=0;entryDy=0;" edge="1" parent="1" source="5" target="11">
                    <mxGeometry width="50" height="50" relative="1" as="geometry">
                        <mxPoint x="390" y="280" as="sourcePoint"/>
                        <mxPoint x="110" y="420" as="targetPoint"/>
                        <Array as="points">
                            <mxPoint x="80" y="270"/>
                            <mxPoint x="80" y="420"/>
                        </Array>
                    </mxGeometry>
                </mxCell>
                <mxCell id="11" value="index" style="rounded=1;whiteSpace=wrap;html=1;" vertex="1" parent="1">
                    <mxGeometry x="140" y="400" width="70" height="40" as="geometry"/>
                </mxCell>
                <mxCell id="15" value="routes(handler)" style="rounded=1;whiteSpace=wrap;html=1;" vertex="1" parent="1">
                    <mxGeometry x="240" y="400" width="110" height="40" as="geometry"/>
                </mxCell>
                <mxCell id="17" value="" style="endArrow=classic;html=1;exitX=1;exitY=0.5;exitDx=0;exitDy=0;entryX=0;entryY=0.5;entryDx=0;entryDy=0;" edge="1" parent="1" source="11" target="15">
                    <mxGeometry width="50" height="50" relative="1" as="geometry">
                        <mxPoint x="260" y="320" as="sourcePoint"/>
                        <mxPoint x="310" y="270" as="targetPoint"/>
                    </mxGeometry>
                </mxCell>
            </root>
        </mxGraphModel>
    </diagram>
</mxfile>